<svg width="41" height="40" viewBox="0 0 41 40" fill="none" xmlns="http://www.w3.org/2000/svg">
<path d="M22.1667 4.16671V5.00004C22.1667 9.71409 22.1667 12.0711 23.6312 13.5356C25.0957 15 27.4527 15 32.1667 15H33M33.8334 17.7615V23.3334C33.8334 29.6187 33.8334 32.7615 31.8807 34.714C29.9282 36.6667 26.7854 36.6667 20.5 36.6667C14.2146 36.6667 11.0719 36.6667 9.1193 34.714C7.16669 32.7615 7.16669 29.6187 7.16669 23.3334V15.7598C7.16669 10.3514 7.16669 7.64722 8.64347 5.81559C8.94182 5.44556 9.27887 5.10851 9.6489 4.81016C11.4805 3.33337 14.1847 3.33337 19.593 3.33337C20.769 3.33337 21.3569 3.33337 21.8954 3.52339C22.0074 3.56291 22.117 3.60837 22.2242 3.65962C22.7394 3.90596 23.155 4.32171 23.9865 5.15317L31.8807 13.0474C32.8442 14.0109 33.3259 14.4926 33.5797 15.1051C33.8334 15.7177 33.8334 16.399 33.8334 17.7615Z" stroke="white" stroke-width="2.5" stroke-linecap="round" stroke-linejoin="round"/>
</svg>
