<svg width="40" height="40" viewBox="0 0 40 40" fill="none" xmlns="http://www.w3.org/2000/svg">
<path d="M15.8333 16.6667C15.8333 18.5077 17.3257 20 19.1667 20C21.0077 20 22.5 18.5077 22.5 16.6667C22.5 14.8258 21.0077 13.3334 19.1667 13.3334C17.3257 13.3334 15.8333 14.8258 15.8333 16.6667Z" stroke="white" stroke-width="2.5"/>
<path d="M7.61709 23.3334C6.48263 21.3722 5.83333 19.0952 5.83333 16.6667C5.83333 9.30291 11.8029 3.33337 19.1667 3.33337C26.5305 3.33337 32.5 9.30291 32.5 16.6667C32.5 19.0952 31.8507 21.3722 30.7162 23.3334" stroke="white" stroke-width="2.5" stroke-linecap="round"/>
<path d="M22.25 36.6667H9.41667C7.30997 36.6667 6.25664 36.6667 5.49995 36.0247C5.17239 35.7467 4.89114 35.3895 4.67226 34.9737C4.16667 34.0127 4.16667 32.6752 4.16667 30C4.16667 27.3249 4.16667 25.9874 4.67226 25.0264C4.89114 24.6105 5.17239 24.2534 5.49995 23.9754C6.25664 23.3334 7.30997 23.3334 9.41667 23.3334H32.5" stroke="white" stroke-width="2.5" stroke-linecap="round"/>
<path d="M25.651 11.0175L29.0035 7.66516" stroke="white" stroke-width="2.5" stroke-linecap="round" stroke-linejoin="round"/>
<path d="M27.5 28.3334L31.6667 32.5M31.6667 32.5L35.8333 36.6667M31.6667 32.5L27.5 36.6667M31.6667 32.5L35.8333 28.3334" stroke="white" stroke-width="2.5" stroke-linecap="round" stroke-linejoin="round"/>
</svg>
