<svg width="41" height="40" viewBox="0 0 41 40" fill="none" xmlns="http://www.w3.org/2000/svg">
<path d="M31.6813 5.82555C28.5275 4.25635 24.6682 3.33331 20.5 3.33331C16.3318 3.33331 12.4725 4.25635 9.3186 5.82555C7.77197 6.59508 6.99865 6.97985 6.24933 8.18961C5.5 9.3994 5.5 10.5708 5.5 12.9135V18.7285C5.5 28.2008 13.0706 33.4673 17.455 35.723C18.6778 36.3521 19.2892 36.6666 20.5 36.6666C21.7108 36.6666 22.3222 36.3521 23.5448 35.723C27.9293 33.4673 35.5 28.2008 35.5 18.7285V12.9135C35.5 10.5708 35.5 9.39941 34.7507 8.18961C34.0013 6.97983 33.228 6.59508 31.6813 5.82555Z" stroke="white" stroke-width="2.5" stroke-linecap="round" stroke-linejoin="round"/>
<path d="M15.5 19.1666C15.5 19.1666 17.8465 19.5865 18.8333 22.5C18.8333 22.5 21.3333 17.5 25.5 15.8333" stroke="white" stroke-width="2.5" stroke-linecap="round" stroke-linejoin="round"/>
</svg>
